# xmcd CD database file
#
# Track frame offsets:
#	150
#	19601
#	38126
#	56499
#	78054
#	102737
#	122008
#
# Disc length: 1930 seconds
#
# Revision: 0
# Processed by: cddbd v1.5.2PL0 Copyright (c) Steve Scherf et al.
# Submitted via: CDex 1.51
#
DISCID=4e078807
DTITLE=Rob Christian - Get Real
DYEAR=2006
DGENRE=Jazz
TTITLE0=Get Real
TTITLE1=Watermelon Man
TTITLE2=Summertime
TTITLE3=Stella By Starlight
TTITLE4=Manha de Carnaval
TTITLE5=Wobble
TTITLE6=RJ Blues
EXTD=YEAR: 2006
EXTT0=
EXTT1=
EXTT2=
EXTT3=
EXTT4=
EXTT5=
EXTT6=
PLAYORDER=
